<?xml version="1.0" standalone="no"?>
<!DOCTYPE svg PUBLIC "-//W3C//DTD SVG 20010904//EN"
 "http://www.w3.org/TR/2001/REC-SVG-20010904/DTD/svg10.dtd">
<svg version="1.0" xmlns="http://www.w3.org/2000/svg"
 width="459.000000pt" height="123.000000pt" viewBox="0 0 459.000000 123.000000"
 preserveAspectRatio="xMidYMid meet">

<g transform="translate(0.000000,123.000000) scale(0.100000,-0.100000)"
fill="#000000" stroke="none">
<path d="M340 971 c-129 -42 -190 -149 -146 -255 25 -59 93 -96 252 -136 23
-5 53 -19 68 -31 45 -36 30 -100 -29 -125 -77 -32 -166 -8 -190 51 -15 35 -16
35 -76 35 l-61 0 7 -32 c29 -132 150 -198 313 -170 119 20 182 87 182 192 0
102 -53 151 -208 195 -106 29 -126 40 -141 72 -24 53 25 103 102 103 61 0 101
-20 117 -60 12 -30 15 -31 69 -28 53 3 56 4 53 28 -7 48 -46 104 -95 134 -39
24 -60 30 -120 32 -39 2 -83 0 -97 -5z"/>
<path d="M1950 838 l0 -131 -22 20 c-92 83 -236 67 -314 -34 -91 -120 -54
-298 76 -366 75 -39 149 -35 215 11 l45 32 0 -30 c0 -30 1 -30 55 -30 l55 0 0
330 0 330 -55 0 -55 0 0 -132z m-69 -181 c76 -50 87 -146 26 -211 -85 -89
-230 -27 -229 96 2 107 117 173 203 115z"/>
<path d="M2610 640 l0 -330 60 0 60 0 0 140 0 140 140 0 140 0 0 60 0 60 -140
0 -140 0 0 75 0 75 175 0 175 0 0 55 0 55 -235 0 -235 0 0 -330z"/>
<path d="M3130 640 l0 -330 55 0 55 0 0 330 0 330 -55 0 -55 0 0 -330z"/>
<path d="M815 880 c-50 -17 -50 -17 -53 -63 -3 -46 -4 -47 -38 -47 -34 0 -34
0 -34 -45 0 -45 0 -45 35 -45 l35 0 0 -132 c0 -107 3 -140 18 -167 37 -74 122
-100 206 -63 55 25 63 40 41 82 -15 29 -18 30 -38 17 -41 -26 -75 -29 -97 -7
-18 18 -20 33 -20 145 l0 125 45 0 c41 0 46 3 75 45 l31 45 -75 0 -75 0 -3 63
-3 64 -50 -17z"/>
<path d="M1090 604 c0 -171 1 -179 25 -220 50 -85 163 -108 240 -50 l35 27 0
-25 c0 -25 3 -26 55 -26 l55 0 0 236 0 235 -51 -3 -52 -3 -5 -150 c-5 -166
-13 -195 -62 -215 -41 -17 -87 -3 -114 33 -19 26 -21 42 -21 180 l0 152 -52 3
-53 3 0 -177z"/>
<path d="M3433 759 c-121 -59 -171 -205 -111 -324 89 -179 339 -176 434 5 26
50 25 153 -3 205 -27 51 -78 100 -125 119 -54 23 -144 20 -195 -5z m188 -115
c105 -100 16 -271 -123 -234 -63 18 -104 93 -88 165 22 98 140 137 211 69z"/>
<path d="M2103 758 c93 -241 167 -437 167 -447 0 -6 -16 -53 -35 -102 -19 -50
-35 -93 -35 -96 0 -2 25 -3 56 -1 l56 3 128 328 127 328 -59 -3 -60 -3 -56
-147 c-30 -81 -58 -146 -61 -144 -3 3 -31 70 -61 150 l-55 146 -59 0 c-42 0
-57 -3 -53 -12z"/>
<path d="M3883 540 c61 -126 113 -230 117 -230 3 0 32 53 64 118 l59 117 56
-117 c31 -65 58 -118 61 -118 5 0 230 445 230 455 0 3 -26 5 -57 4 l-58 0 -56
-117 -56 -117 -59 118 -59 117 -57 0 -58 0 26 -52 26 -53 -31 -64 -30 -64 -58
117 -58 116 -57 0 -57 0 112 -230z"/>
</g>
</svg>
